PathFileType	4	(X/Y/Z)	SUBJ94_1_walk_RCNL2025.trc
DataRate	CameraRate	NumFrames	NumMarkers	Units	OrigDataRate	OrigDataStartFrame	OrigNumFrames
100	100	11	25	mm	100	287	382
Frame#	Time	R_Shoulder			L_Shoulder			C7			J_Notch			R_Elbow			L_Elbow			R_Wrist			L_Wrist			R_Asis			L_Asis			Sacral			Thoracic			Sternum			R_Thigh_Lateral			R_Knee_Lateral			R_Shank_Lateral			R_Ankle_Lateral			R_Heel			R_Toe			L_Thigh_Lateral			L_Knee_Lateral			L_Shank_Lateral			L_Ankle_Lateral			L_Heel			L_Toe		
		X1	Y1	Z1	X2	Y2	Z2	X3	Y3	Z3	X4	Y4	Z4	X5	Y5	Z5	X6	Y6	Z6	X7	Y7	Z7	X8	Y8	Z8	X9	Y9	Z9	X10	Y10	Z10	X11	Y11	Z11	X12	Y12	Z12	X13	Y13	Z13	X14	Y14	Z14	X15	Y15	Z15	X16	Y16	Z16	X17	Y17	Z17	X18	Y18	Z18	X19	Y19	Z19	X20	Y20	Z20	X21	Y21	Z21	X22	Y22	Z22	X23	Y23	Z23	X24	Y24	Z24	X25	Y25	Z25
287	2.86000000	623.794495	1274.542847	402.390076	590.725159	1276.282837	23.175028	551.162048	1354.007935	216.108231	664.560974	1261.070312	203.936752	568.341370	1013.724609	523.375122	501.314575	1001.863464	-32.343990	660.142090	808.644073	553.423950	646.868256	821.001343	-48.716931	669.838623	883.165100	334.798645	663.010132	873.711243	108.530594	475.749023	937.850342	215.588272	481.665833	1151.810303	218.909180	698.124268	1068.249146	213.585052	603.907532	535.887817	396.270172	597.094727	442.320526	336.020172	585.691040	254.781296	368.200012	571.042358	54.650734	279.938141	524.088928	53.415417	233.936523	703.840942	40.583866	244.201309	672.511719	538.984985	10.195504	689.469482	446.123840	60.394157	576.045227	311.490997	7.625481	433.171875	176.191086	119.241264	399.311707	193.450760	169.818878	508.681152	79.412926	136.672607
288	2.87000000	635.559937	1274.922852	402.502594	600.867065	1276.328247	23.496391	562.132141	1354.190186	216.603806	675.444641	1261.200684	203.828125	584.217407	1013.535034	524.157349	508.931335	1002.514404	-31.014391	680.374878	810.177979	552.065948	652.107330	819.852081	-48.415880	680.237854	883.127380	335.481537	673.872803	874.478088	109.247559	486.513916	938.435364	215.886826	492.589172	1152.095825	219.801270	708.773499	1068.347656	213.348465	609.295410	535.979065	396.227386	600.424500	442.345825	335.916382	588.023254	254.962952	367.873444	571.235229	54.877048	279.629700	524.360168	53.885090	233.606400	703.950806	40.479515	244.276489	690.271118	541.609863	10.352709	709.330383	449.080048	61.054188	600.427795	310.689941	8.706285	463.165680	168.897293	120.098930	429.080414	184.226685	171.416626	544.397339	76.734985	136.387924
289	2.88000000	647.298157	1275.102051	402.587189	611.050415	1276.117798	23.802887	573.066956	1354.155640	217.031082	686.295837	1261.122681	203.745972	600.066650	1013.160217	524.804565	516.615234	1002.969177	-29.794531	700.654022	811.679596	550.549408	657.420197	818.556519	-48.188291	690.560425	882.905640	336.196411	684.759583	874.878479	110.061813	497.234314	938.737732	215.969315	503.464294	1152.176270	220.606674	719.394531	1068.263062	213.270035	615.013245	535.989807	396.163666	604.009521	442.351044	335.819214	590.284729	255.155746	367.602631	571.440369	55.112949	279.324585	524.649353	54.383533	233.265869	704.067017	40.370361	244.332367	707.601135	543.952515	10.558359	728.506714	451.789368	61.833580	624.827515	309.163513	9.903175	493.973511	160.822861	121.074402	459.788849	174.067307	173.212860	580.689209	73.695107	135.922424
290	2.89000000	659.025452	1275.061035	402.642853	621.251404	1275.652832	24.083349	583.984009	1353.908203	217.393539	697.119873	1260.843262	203.696732	615.915161	1012.601318	525.335815	524.379456	1003.208923	-28.682751	720.951599	813.131958	548.878845	662.835510	817.107727	-48.041348	700.824097	882.472168	336.917328	695.677063	874.927307	110.931534	507.913666	938.735107	215.859695	514.300476	1152.054565	221.317947	730.008118	1067.990479	213.332092	621.047852	535.905151	396.088196	607.845337	442.332611	335.731659	592.325806	255.365402	367.418152	571.648499	55.361561	279.026093	524.954407	54.914406	232.907288	704.192139	40.267731	244.369858	724.417847	545.948242	10.831227	746.968018	454.192932	62.718925	649.240112	306.924652	11.152094	525.585938	152.138290	122.178421	491.464569	163.165298	175.171555	617.512756	70.448471	135.267319
291	2.90000000	670.754089	1274.789551	402.666626	631.456421	1274.941895	24.328194	594.901428	1353.453857	217.694611	707.924683	1260.370239	203.682281	631.787903	1011.863953	525.767761	532.234802	1003.222534	-27.674824	741.238556	814.518829	547.057556	668.379028	815.502777	-47.981188	711.048279	881.820679	337.616302	706.629089	874.655212	111.808136	518.558655	938.415955	215.586105	525.107117	1151.737061	221.929443	740.629700	1067.525635	213.511093	627.379333	535.719421	396.009430	611.928833	442.286926	335.654572	594.095215	255.592743	367.323029	571.853210	55.625938	278.734558	525.269104	55.487762	232.531082	704.325256	40.179024	244.388260	740.646179	547.535645	11.195051	764.692505	456.236450	63.696114	673.613159	304.070923	12.405200	557.998962	143.022079	123.376106	524.121460	151.739456	177.229691	654.834412	67.159645	134.435410
292	2.91000000	682.493103	1274.286621	402.653229	641.662354	1274.000977	24.529785	605.836121	1352.800903	217.936310	718.720825	1259.710938	203.700378	647.699158	1010.955383	526.105957	540.190796	1003.008423	-26.764311	761.484558	815.826477	545.087616	674.074768	813.746796	-48.012052	721.252014	880.965454	338.264587	717.617493	874.101379	112.641167	529.178101	937.778992	215.175552	535.893738	1151.232300	222.437134	751.267822	1066.864624	213.780136	633.971924	535.434143	395.934662	616.258301	442.212250	335.587555	595.637756	255.835037	367.294769	572.051208	55.911285	278.449097	525.584229	56.115437	232.143234	704.462952	40.106941	244.386841	756.225159	548.659851	11.675130	781.662842	457.871796	64.750641	697.852722	300.753998	13.624297	591.209106	133.659805	124.608521	557.754639	140.022339	179.302414	692.616272	63.996178	133.459534
293	2.92000000	694.249207	1273.559814	402.595886	651.873169	1272.852173	24.683372	616.800232	1351.961548	218.119659	729.520020	1258.869995	203.745407	663.652649	1009.885193	526.346436	548.257446	1002.574219	-25.943588	781.660034	817.045563	542.969604	679.945343	811.852966	-48.134435	731.453491	879.936157	338.834595	728.644592	873.307373	113.382774	539.783142	936.832031	214.651794	546.670715	1150.550293	222.838409	761.924438	1066.003906	214.111267	640.772400	535.057251	395.868683	620.830505	442.111053	335.530060	597.077942	256.088898	367.297272	572.243164	56.225628	278.168365	525.895630	56.805202	231.752075	704.600708	40.049225	244.366760	771.110962	549.275940	12.292343	797.864014	459.057404	65.867760	721.840515	297.142151	14.778852	625.199829	124.241379	125.809769	592.327515	128.256592	181.291672	730.811035	61.127861	132.386749
294	2.93000000	706.027283	1272.622681	402.487000	662.097595	1271.521973	24.787151	627.800232	1350.951782	218.245285	740.334595	1257.849976	203.809280	679.645142	1008.668396	526.482300	556.446472	1001.935852	-25.205387	801.736206	818.172485	540.703583	686.011719	809.839844	-48.344778	741.670410	878.770691	339.302917	739.713806	872.314331	113.992531	550.387634	935.590820	214.034790	557.449036	1149.702148	223.132141	772.598083	1064.940918	214.477844	647.715942	534.603577	395.812317	625.639221	441.991150	335.482635	598.587891	256.351929	367.294250	572.433228	56.578915	277.890137	526.211060	57.559731	231.365128	704.734009	39.999210	244.332748	785.277649	549.351624	13.057303	813.285034	459.758759	67.032234	745.455505	293.388580	15.846265	659.930115	114.961418	126.915276	627.762878	116.690536	183.098816	769.353943	58.722843	131.274216
295	2.94000000	717.830200	1271.493164	402.317963	672.349304	1270.038574	24.840633	638.838684	1349.789551	218.312805	751.177856	1256.653198	203.882141	695.667908	1007.325378	526.506348	564.771606	1001.115845	-24.544115	821.683563	819.209198	538.290649	692.294891	807.729675	-48.638386	751.919189	877.508484	339.653046	750.830811	871.161072	114.441650	561.007080	934.077820	213.340240	568.239441	1148.700928	223.318466	783.287598	1063.676514	214.855301	654.738525	534.095459	395.762451	630.677368	441.863098	335.446533	600.339966	256.621552	367.255096	572.628845	56.981964	277.610748	526.546326	58.381489	230.986038	704.862000	39.947308	244.293259	798.714966	548.868225	13.966789	827.921753	459.948547	68.228050	768.601257	289.610870	16.812595	695.324951	106.019516	127.865875	663.939819	105.565613	184.636780	808.150818	56.939976	130.187012
296	2.95000000	729.658081	1270.192993	402.079346	682.647705	1268.430176	24.842646	649.917175	1348.493164	218.319748	762.063538	1255.283936	203.952637	711.706238	1005.880432	526.411499	573.249817	1000.140747	-23.956223	841.470642	820.163422	535.734146	698.817230	805.548370	-49.012982	762.213379	876.185242	339.877777	762.004456	869.882446	114.715546	571.658386	932.322327	212.579300	579.051025	1147.562988	223.399200	793.996033	1062.216431	215.220657	661.792358	533.559143	395.713715	635.941589	441.734955	335.421082	602.461609	256.893494	367.155701	572.839233	57.445610	277.325043	526.913635	59.279274	230.613785	704.991211	39.883175	244.259262	811.426392	547.822144	15.001625	841.780640	459.607025	69.439125	791.225769	285.884399	17.671223	731.265930	97.616966	128.610443	700.687317	95.104256	185.837265	847.066467	55.922802	129.197281
297	2.96000000	741.509094	1268.747803	401.761810	693.016357	1266.722778	24.790262	661.037659	1347.080566	218.260681	773.003784	1253.749390	204.008011	727.741577	1004.361023	526.191528	581.899963	999.037842	-23.439796	861.064423	821.048248	533.040482	705.602997	803.324707	-49.469915	772.563171	874.830383	339.980560	773.248901	868.508301	114.815170	582.360413	930.360413	211.757935	589.892639	1146.306274	223.378159	804.731445	1060.573364	215.552109	668.856628	533.018494	395.661407	641.436035	441.607361	335.402161	605.012939	257.163025	366.982025	573.074036	57.979927	277.028351	527.316345	60.269081	230.245697	705.134766	39.798187	244.241440	823.426636	546.226379	16.124783	854.883057	458.724091	70.650200	813.310608	282.252075	18.416288	767.581177	89.948318	129.108414	737.775513	85.501892	186.653381	885.914307	55.794376	128.383270
